<?xml version="1.0" encoding="UTF-8"?>
<svg id="Capa_2" data-name="Capa 2" xmlns="http://www.w3.org/2000/svg" viewBox="0 0 41.85 37.45">
  <defs>
    <style>
      .cls-1 {
        fill: #20b4b6;
      }
    </style>
  </defs>
  <g id="Capa_1-2" data-name="Capa 1">
    <path class="cls-1" d="m11.51.01c1.95-.07,4.02.57,5.69,1.53.72.41,1.38.92,1.99,1.48.35.31.68.65,1,.99.4.42.51.81,1.01.45.7-.51,1.24-1.29,1.93-1.83.72-.57,1.5-1.07,2.33-1.47,1.83-.88,3.85-1.28,5.88-1.11,8.03.65,12.98,9.98,9.22,17.03-1.92,3.59-4.62,6.65-7.45,9.54-3.01,3.07-6.17,6.04-9.4,8.88-.71.62-1.45,1.32-2.27,1.81-.83.5-1.44-.32-2.09-.85-1.62-1.32-3.16-2.75-4.68-4.18-3.16-2.98-6.29-5.95-9.17-9.2-1.49-1.68-2.79-3.45-3.89-5.4C.47,15.64-.03,13.85,0,11.51.07,7.1,2.52,3.35,6.36,1.26,7.94.4,9.65-.03,11.51.01Zm17.1,26.92c.79.02,1.46-.48,1.69-1.22.28-.88-.37-1.75-.8-2.46-.5-.84-1.06-1.65-1.64-2.44-1.05-1.41-2.12-2.81-3.46-3.96-1.15-.98-2.57-1.88-4.15-1.57-1.49.3-2.8,1.5-3.83,2.55-1.12,1.14-2.1,2.41-3,3.73-.68,1-2.17,2.65-2,3.94.08.66.66,1.25,1.29,1.42.72.2,1.37-.21,2.01-.5,1.5-.7,3.04-1.37,4.7-1.59,1.64-.22,3.31-.06,4.88.41.8.24,1.57.57,2.32.92.62.3,1.28.76,1.99.77Zm-12.01-11.35c.24,0,.47-.02.71-.09,3.45-1.12,2.14-8.26-1.63-7.52-3.78.75-2.84,7.62.93,7.61Zm11.88-4.19c.03-.21-.05-.52-.08-.84-.15-1.86-2.25-3.27-3.94-2.29-1.52.88-2.14,2.8-1.9,4.46.23,1.61,1.46,3.26,3.27,2.82,1.85-.45,2.64-2.43,2.65-4.15Zm-19.01,5.08c0,1.38.67,2.4,1.8,3.09,2.39,1.47,3.8-1.49,2.9-3.46-.44-.95-1.36-1.87-2.45-2-1.4-.16-2.24,1.12-2.25,2.37Zm17.84,1.1c0,.7.2,1.31.67,1.84.37.41,1.36.57,1.85.45.67-.16,1.2-.59,1.63-1.12.81-.98,1.23-2.39.6-3.58-.63-1.19-2.02-1.29-3.08-.63-1.02.64-1.66,1.84-1.66,3.04Z"/>
  </g>
</svg>